<?xml version="1.0" encoding="utf-8"?>
<!-- Generator: Adobe Illustrator 20.1.0, SVG Export Plug-In . SVG Version: 6.00 Build 0)  -->
<svg version="1.1" xmlns="http://www.w3.org/2000/svg" xmlns:xlink="http://www.w3.org/1999/xlink" x="0px" y="0px"
	 viewBox="0 0 1922.1 810.3" style="enable-background:new 0 0 1922.1 810.3;" xml:space="preserve">
<style type="text/css">
	.st0{fill:#1C1C1C;}
	.st1{fill:none;stroke:url(#SVGID_1_);stroke-width:10.2689;stroke-linecap:round;stroke-miterlimit:10;}
	.st2{fill:#666667;}
	.st3{font-family:'Roboto-Medium';}
	.st4{font-size:29.3479px;}
	.st5{opacity:3.000000e-02;fill:#FFFFFF;}
	.st6{opacity:0.1;fill:#FFFFFF;}
	.st7{fill:#953C7F;}
	.st8{fill:#62417C;}
	.st9{fill:#773D75;}
</style>
<g id="Слой_2">
	<path class="st0" d="M0,742.1c0,0,177.5,16.1,292.7-86.6c0,0,40.3-34.5,127.6-12.8c0,0,82.9,34.8,114.8-41.1
		c0,0,51-121.8,171.3-97.2c0,0,113.3,22.7,206.5-13.2c0,0,72.6-46.2,102.7-55c0,0,41.1-18.7,132,6.2c0,0,108.9,6.2,203.2-97.9
		c0,0,88.4-112.6,243.9-38.9c0,0,145.2,96.1,268.5-65.6c0,0,57.6-77.7,59-94.6V-347H0V742.1z"/>
	<linearGradient id="SVGID_1_" gradientUnits="userSpaceOnUse" x1="-5.1344" y1="444.2035" x2="1927.2444" y2="444.2035">
		<stop  offset="0" style="stop-color:#C84081"/>
		<stop  offset="1" style="stop-color:#3A367C"/>
	</linearGradient>
	<path class="st1" d="M0,742.1c0,0,177.5,16.1,292.7-86.6c0,0,38.2-32.6,120.6-14.5c3.6,0.8,7.2,1.8,10.8,3
		c16.5,5.7,83.2,23.8,111.1-42.5c0,0,51-121.8,171.3-97.2c0,0,103.4,20.7,193.8-8.7c7.7-2.5,15-6,21.8-10.2
		c19.9-12.3,67.4-40.8,91.6-48.7c1.1-0.4,2.3-0.8,3.4-1.2c7.5-2.8,45.1-14.2,117.9,3.5c11.4,2.8,23.2,3.5,34.8,2.3
		c36.4-3.9,111.5-21.1,179.5-95.1c0.9-1,1.8-2,2.6-3c10.1-11.9,94.6-104,236.6-40.5c3.4,1.5,6.7,3.2,9.9,5.1
		c23.2,13.4,153.1,78.8,264.8-67.9c0,0,57.6-77.7,59-94.6"/>
</g>
<g id="Слой_3">
	<text transform="matrix(1 0 0 1 624.7555 436.2185)" class="st2 st3 st4">+ 7.68</text>
	<circle class="st5" cx="667.2" cy="499.9" r="30.7"/>
	<circle class="st6" cx="667.2" cy="499.9" r="13.6"/>
	<circle class="st7" cx="667.2" cy="499.9" r="9.5"/>
</g>
<g id="Слой_4">
	<circle class="st5" cx="1467.2" cy="279.9" r="30.7"/>
	<circle class="st6" cx="1467.2" cy="279.9" r="13.6"/>
	<circle class="st8" cx="1467.2" cy="279.9" r="9.5"/>
	<text transform="matrix(1 0 0 1 1414.7555 216.2185)" class="st2 st3 st4">+ 14.71</text>
</g>
<g id="Слой_5">
	<circle class="st5" cx="1052.1" cy="430.6" r="30.7"/>
	<circle class="st6" cx="1052.1" cy="430.6" r="13.6"/>
	<circle class="st9" cx="1052.1" cy="430.6" r="9.5"/>
	<text transform="matrix(1 0 0 1 1002.6627 366.9811)" class="st2 st3 st4">+ 10.42</text>
</g>
</svg>
