<?xml version="1.0" encoding="utf-8"?>
<!-- Generator: Adobe Illustrator 20.1.0, SVG Export Plug-In . SVG Version: 6.00 Build 0)  -->
<svg version="1.1" id="Слой_1" xmlns="http://www.w3.org/2000/svg" xmlns:xlink="http://www.w3.org/1999/xlink" x="0px" y="0px"
	 viewBox="0 0 17.8 134.9" style="enable-background:new 0 0 17.8 134.9;" xml:space="preserve">
<style type="text/css">
	.st0{fill:#0057FF;}
	.st1{fill:#0057FF;}
	.st2{fill:#FFFFFF;}
</style>
<ellipse id="_x30_000fe" transform="matrix(0.8708 -0.4916 0.4916 0.8708 -9.8963 7.2729)" class="st0" cx="8.9" cy="22.5" rx="8.4" ry="8.4"/>
<path class="st1" d="M4.2,15.6c0,0,1-0.7,1-0.8L4.8,5.2c0.2-2.3,1.8-4.3,4.1-4.7c0.9-0.1,1.6,0,2.4,0.6c0.9,0.7,1.6,2.3,1.6,3.5
	l-0.5,10.4c0,0,0.3,0.1,0.3,0.1L9.5,30.8c0,0,0,0.1,0,0.1L8.5,134.2c0,0,0.1,0.5-1.2,0.3c-0.7-0.1-0.6-1.3-0.6-2.1L7.6,30.6
	c0,0,0-0.1,0-0.1L4.2,15.6z"/>
<ellipse transform="matrix(0.8708 -0.4916 0.4916 0.8708 -9.8963 7.2729)" class="st2" cx="8.9" cy="22.5" rx="1.9" ry="1.9"/>
</svg>
