<svg id="Слой_1" xmlns="http://www.w3.org/2000/svg" viewBox="0 0 17.8 134.9"><style>.st0,.st1{fill:#0057ff}.st2{fill:#fff}</style><ellipse id="_x30_000fe" transform="rotate(-29.448 8.89 22.467)" class="st0" cx="8.9" cy="22.5" rx="8.4" ry="8.4"/><path class="st1" d="M4.2 15.6s1-.7 1-.8l-.4-9.6C5 2.9 6.6.9 8.9.5c.9-.1 1.6 0 2.4.6.9.7 1.6 2.3 1.6 3.5L12.4 15l.3.1-3.2 15.7v.1l-1 103.3s.1.5-1.2.3c-.7-.1-.6-1.3-.6-2.1l.9-101.8v-.1L4.2 15.6z"/><ellipse transform="rotate(-29.448 8.89 22.467)" class="st2" cx="8.9" cy="22.5" rx="1.9" ry="1.9"/></svg>